<?xml version="1.0" encoding="UTF-8"?>
<!--Generator: Apple Native CoreSVG 326-->
<!DOCTYPE svg
PUBLIC "-//W3C//DTD SVG 1.1//EN"
       "http://www.w3.org/Graphics/SVG/1.1/DTD/svg11.dtd">
<svg version="1.1" xmlns="http://www.w3.org/2000/svg" xmlns:xlink="http://www.w3.org/1999/xlink" viewBox="0 0 335.859 305.273">
 <g>
  <rect height="305.273" opacity="0" width="335.859" x="0" y="0"/>
  <path d="M173.32 251.25L325.312 251.25C331.172 251.25 335.859 246.797 335.859 240.938C335.859 235.078 331.172 230.508 325.312 230.508L173.32 230.508C167.461 230.508 162.891 235.078 162.891 240.938C162.891 246.797 167.461 251.25 173.32 251.25Z" fill="#32d74b"/>
  <path d="M64.3359 305.273C99.375 305.273 128.555 276.094 128.555 240.938C128.555 205.664 99.375 176.602 64.3359 176.602C28.9453 176.602 0 205.781 0 240.938C0 276.094 29.0625 305.273 64.3359 305.273ZM64.3359 286.289C39.6094 286.289 18.9844 265.547 18.9844 240.938C18.9844 216.328 39.7266 195.469 64.3359 195.469C88.8281 195.469 109.57 216.328 109.57 240.938C109.57 265.547 88.8281 286.289 64.3359 286.289Z" fill="#32d74b"/>
  <path d="M173.32 75.2344L325.312 75.2344C331.172 75.2344 335.859 70.7812 335.859 64.8047C335.859 58.9453 331.172 54.4922 325.312 54.4922L173.32 54.4922C167.461 54.4922 162.891 58.9453 162.891 64.8047C162.891 70.7812 167.461 75.2344 173.32 75.2344Z" fill="#32d74b"/>
  <path d="M64.3359 129.141C99.375 129.141 128.555 99.9609 128.555 64.6875C128.555 29.5312 99.375 0.46875 64.3359 0.46875C28.9453 0.46875 0 29.5312 0 64.6875C0 99.8438 29.0625 129.141 64.3359 129.141ZM56.6016 99.8438C53.7891 99.8438 51.9141 98.3203 49.9219 96.0938L31.875 74.7656C30.7031 73.2422 30.1172 71.7188 30.1172 69.375C30.1172 65.3906 33.2812 62.2266 37.1484 62.2266C39.7266 62.2266 41.6016 63.2812 43.3594 65.5078L56.3672 81.5625L84.4922 36.7969C86.1328 34.2188 88.3594 32.8125 90.8203 32.8125C94.8047 32.8125 98.0859 35.8594 98.0859 39.4922C98.0859 41.3672 97.5 43.0078 96.0938 45.1172L63.6328 95.9766C61.9922 98.4375 59.6484 99.8438 56.6016 99.8438Z" fill="#32d74b"/>
 </g>
</svg>
