<?xml version="1.0" encoding="UTF-8"?>
<!--Generator: Apple Native CoreSVG 326-->
<!DOCTYPE svg
PUBLIC "-//W3C//DTD SVG 1.1//EN"
       "http://www.w3.org/Graphics/SVG/1.1/DTD/svg11.dtd">
<svg version="1.1" xmlns="http://www.w3.org/2000/svg" xmlns:xlink="http://www.w3.org/1999/xlink" viewBox="0 0 379.453 304.336">
 <g>
  <rect height="304.336" opacity="0" width="379.453" x="0" y="0"/>
  <path d="M64.4531 236.25L68.9062 254.062C74.5312 277.148 86.6016 288.516 110.508 288.516L268.945 288.516C292.969 288.516 305.039 277.383 310.664 254.062L315.117 236.25ZM59.8828 217.5L319.805 217.5L347.344 104.883L335.273 97.5L270.469 143.555C264.609 147.539 260.273 146.25 256.758 141.328L194.297 49.5703L185.391 49.3359L121.992 142.148C118.828 146.602 115.078 147.656 109.688 143.906L45.3516 98.3203L31.7578 103.008ZM35.0391 129.492C54.2578 129.492 69.9609 113.789 69.9609 94.4531C69.9609 75.3516 54.2578 59.5312 35.0391 59.5312C15.7031 59.5312 0 75.2344 0 94.4531C0 113.789 15.8203 129.492 35.0391 129.492ZM189.727 69.8438C209.062 69.8438 224.648 54.2578 224.648 34.9219C224.648 15.7031 209.062 0 189.727 0C170.391 0 154.688 15.5859 154.688 34.9219C154.688 54.2578 170.508 69.8438 189.727 69.8438ZM344.414 129.492C363.633 129.492 379.453 113.789 379.453 94.4531C379.453 75.2344 363.75 59.5312 344.414 59.5312C325.078 59.5312 309.492 75.3516 309.492 94.4531C309.492 113.789 325.078 129.492 344.414 129.492Z" fill="#ff375f"/>
 </g>
</svg>
