<?xml version="1.0" encoding="UTF-8"?>
<!--Generator: Apple Native CoreSVG 326-->
<!DOCTYPE svg
PUBLIC "-//W3C//DTD SVG 1.1//EN"
       "http://www.w3.org/Graphics/SVG/1.1/DTD/svg11.dtd">
<svg version="1.1" xmlns="http://www.w3.org/2000/svg" xmlns:xlink="http://www.w3.org/1999/xlink" viewBox="0 0 363.398 363.633">
 <g>
  <rect height="363.633" opacity="0" width="363.398" x="0" y="0"/>
  <path d="M181.758 323.789C260.156 323.789 323.906 260.039 323.906 181.641C323.906 103.359 260.156 39.6094 181.758 39.6094C103.477 39.6094 39.7266 103.359 39.7266 181.641C39.7266 260.039 103.477 323.789 181.758 323.789ZM181.758 302.93C114.844 302.93 60.5859 248.672 60.5859 181.641C60.5859 114.727 114.844 60.4688 181.758 60.4688C248.789 60.4688 303.047 114.727 303.047 181.641C303.047 248.672 248.789 302.93 181.758 302.93ZM181.758 120.469C187.031 120.469 191.133 116.25 191.133 111.094L191.133 9.60938C191.133 4.33594 187.031 0.234375 181.758 0.234375C176.484 0.234375 172.5 4.33594 172.5 9.60938L172.5 111.094C172.5 116.25 176.484 120.469 181.758 120.469ZM9.375 191.25L110.859 191.25C116.133 191.25 120.352 187.148 120.352 181.992C120.352 176.602 116.133 172.617 110.859 172.617L9.375 172.617C4.21875 172.617 0 176.602 0 181.992C0 187.148 4.21875 191.25 9.375 191.25ZM181.758 363.633C187.031 363.633 191.133 359.414 191.133 354.258L191.133 252.773C191.133 247.5 187.031 243.398 181.758 243.398C176.484 243.398 172.5 247.5 172.5 252.773L172.5 354.258C172.5 359.414 176.484 363.633 181.758 363.633ZM252.539 191.25L354.023 191.25C359.297 191.25 363.398 187.148 363.398 181.992C363.398 176.602 359.297 172.617 354.023 172.617L252.539 172.617C247.383 172.617 243.164 176.602 243.164 181.992C243.164 187.148 247.383 191.25 252.539 191.25Z" fill="#bf5af2"/>
 </g>
</svg>
