<?xml version="1.0" encoding="UTF-8" standalone="no"?>
<!DOCTYPE svg PUBLIC "-//W3C//DTD SVG 1.1//EN" "http://www.w3.org/Graphics/SVG/1.1/DTD/svg11.dtd">
<svg width="100%" height="100%" viewBox="0 0 1024 1024" version="1.1" xmlns="http://www.w3.org/2000/svg" xmlns:xlink="http://www.w3.org/1999/xlink" xml:space="preserve" xmlns:serif="http://www.serif.com/" style="fill-rule:evenodd;clip-rule:evenodd;stroke-linejoin:round;stroke-miterlimit:2;">
    <g transform="matrix(1,0,0,1,-37.0248,-3396.75)">
        <g id="Universal" transform="matrix(1.25073,0,0,1.88932,778.557,3688.51)">
            <rect x="-592.88" y="-154.423" width="818.722" height="541.995" style="fill:rgb(0,153,255);"/>
            <g transform="matrix(0.799534,0,0,0.782349,-563.993,-943.573)">
                <path d="M235.694,1450.36L235.694,1320.18C235.694,1316.48 240.129,1313.48 245.6,1313.48C269.696,1313.48 331.151,1313.48 355.247,1313.48C357.874,1313.48 360.394,1314.19 362.252,1315.44C364.11,1316.7 365.154,1318.4 365.154,1320.18L365.154,1363.46C365.154,1365.24 366.197,1366.94 368.055,1368.2C369.913,1369.46 372.433,1370.16 375.06,1370.16C386.108,1370.16 403.874,1370.16 414.922,1370.16C417.55,1370.16 420.07,1369.46 421.927,1368.2C423.785,1366.94 424.829,1365.24 424.829,1363.46C424.829,1352.56 424.829,1331.09 424.829,1320.18C424.829,1318.4 425.873,1316.7 427.731,1315.44C429.588,1314.19 432.108,1313.48 434.736,1313.48L544.382,1313.48C547.009,1313.48 549.529,1314.19 551.387,1315.44C553.245,1316.7 554.289,1318.4 554.289,1320.18L554.289,1363.46C554.289,1365.24 555.332,1366.94 557.19,1368.2C559.048,1369.46 561.568,1370.16 564.195,1370.16C575.243,1370.16 593.009,1370.16 604.057,1370.16C606.685,1370.16 609.205,1369.46 611.062,1368.2C612.92,1366.94 613.964,1365.24 613.964,1363.46C613.964,1352.56 613.964,1331.09 613.964,1320.18C613.964,1318.4 615.008,1316.7 616.866,1315.44C618.723,1314.19 621.243,1313.48 623.871,1313.48L733.517,1313.48C738.988,1313.48 743.424,1316.48 743.424,1320.18C743.424,1347.67 743.424,1450.36 743.424,1450.36C743.424,1457.97 744.256,1467.3 715.489,1479.88L682.321,1494.77L690.019,1701.47L301.629,1701.47L302.71,1485.64L250.798,1469.23C241.375,1465.07 235.694,1457.97 235.694,1450.36Z" style="fill:white;"/>
                <clipPath id="_clip1">
                    <path d="M235.694,1450.36L235.694,1320.18C235.694,1316.48 240.129,1313.48 245.6,1313.48C269.696,1313.48 331.151,1313.48 355.247,1313.48C357.874,1313.48 360.394,1314.19 362.252,1315.44C364.11,1316.7 365.154,1318.4 365.154,1320.18L365.154,1363.46C365.154,1365.24 366.197,1366.94 368.055,1368.2C369.913,1369.46 372.433,1370.16 375.06,1370.16C386.108,1370.16 403.874,1370.16 414.922,1370.16C417.55,1370.16 420.07,1369.46 421.927,1368.2C423.785,1366.94 424.829,1365.24 424.829,1363.46C424.829,1352.56 424.829,1331.09 424.829,1320.18C424.829,1318.4 425.873,1316.7 427.731,1315.44C429.588,1314.19 432.108,1313.48 434.736,1313.48L544.382,1313.48C547.009,1313.48 549.529,1314.19 551.387,1315.44C553.245,1316.7 554.289,1318.4 554.289,1320.18L554.289,1363.46C554.289,1365.24 555.332,1366.94 557.19,1368.2C559.048,1369.46 561.568,1370.16 564.195,1370.16C575.243,1370.16 593.009,1370.16 604.057,1370.16C606.685,1370.16 609.205,1369.46 611.062,1368.2C612.92,1366.94 613.964,1365.24 613.964,1363.46C613.964,1352.56 613.964,1331.09 613.964,1320.18C613.964,1318.4 615.008,1316.7 616.866,1315.44C618.723,1314.19 621.243,1313.48 623.871,1313.48L733.517,1313.48C738.988,1313.48 743.424,1316.48 743.424,1320.18C743.424,1347.67 743.424,1450.36 743.424,1450.36C743.424,1457.97 744.256,1467.3 715.489,1479.88L682.321,1494.77L690.019,1701.47L301.629,1701.47L302.71,1485.64L250.798,1469.23C241.375,1465.07 235.694,1457.97 235.694,1450.36Z"/>
                </clipPath>
                <g clip-path="url(#_clip1)">
                    <g transform="matrix(1.21687,0,0,0.676542,160.342,589.114)">
                        <path d="M108.616,1323.88L464.714,1324.6L464.931,1348.57L145.446,1347.19L108.616,1323.88Z" style="fill:rgb(60,140,217);"/>
                    </g>
                </g>
            </g>
        </g>
    </g>
</svg>
