<?xml version="1.0" encoding="UTF-8"?>
<!--Generator: Apple Native CoreSVG 326-->
<!DOCTYPE svg
PUBLIC "-//W3C//DTD SVG 1.1//EN"
       "http://www.w3.org/Graphics/SVG/1.1/DTD/svg11.dtd">
<svg version="1.1" xmlns="http://www.w3.org/2000/svg" xmlns:xlink="http://www.w3.org/1999/xlink" viewBox="0 0 305.273 305.508">
 <g>
  <rect height="305.508" opacity="0" width="305.273" x="0" y="0"/>
  <path d="M152.578 305.273C236.133 305.273 305.273 236.133 305.273 152.695C305.273 69.1406 236.25 0 152.695 0C145.078 0 141.68 4.33594 141.68 11.3672L141.68 70.4297C141.68 76.1719 145.43 80.625 151.289 80.625C157.031 80.625 160.781 76.1719 160.781 70.4297L160.781 10.0781L152.227 21.9141C225.234 21.9141 283.242 80.1562 283.242 152.695C283.242 225.117 225.117 283.477 152.578 283.477C80.1562 283.477 21.6797 225.117 21.7969 152.695C21.9141 119.531 34.2188 89.4141 54.375 66.4453C58.3594 61.5234 58.7109 55.4297 54.375 50.9766C50.1562 46.4062 43.125 46.7578 38.4375 52.3828C14.6484 79.3359 0 114.492 0 152.695C0 236.133 69.1406 305.273 152.578 305.273Z" fill="#ff9f0a"/>
  <path d="M152.578 175.781C165.469 175.781 175.781 165.469 175.781 152.695C175.781 144.844 171.914 138.047 165.82 133.711L90 79.5703C83.2031 74.7656 76.1719 81.6797 80.9766 88.7109L132.422 164.18C137.109 171.094 144.141 175.781 152.578 175.781Z" fill="#ff9f0a"/>
 </g>
</svg>
